<mxfile host="app.diagrams.net" modified="2023-01-25T05:46:38.963Z" agent="5.0 (Macintosh; Intel Mac OS X 10_15_7) AppleWebKit/605.1.15 (KHTML, like Gecko) Version/16.2 Safari/605.1.15" etag="jJMSTodkipuRObbwKH8O" version="20.8.11" type="github">
  <diagram name="Page-1" id="2BYbjc5NV7LEVSSUCPkM">
    <mxGraphModel dx="909" dy="647" grid="1" gridSize="10" guides="1" tooltips="1" connect="1" arrows="1" fold="1" page="1" pageScale="1" pageWidth="850" pageHeight="1100" math="0" shadow="0">
      <root>
        <mxCell id="0" />
        <mxCell id="1" parent="0" />
        <mxCell id="ICiJjnYhTAxnkfr3iMK8-49" style="edgeStyle=none;rounded=0;orthogonalLoop=1;jettySize=auto;html=1;exitX=1;exitY=0.5;exitDx=0;exitDy=0;entryX=0;entryY=0.5;entryDx=0;entryDy=0;startArrow=none;startFill=0;endArrow=none;endFill=0;" parent="1" source="ICiJjnYhTAxnkfr3iMK8-1" target="ICiJjnYhTAxnkfr3iMK8-35" edge="1">
          <mxGeometry relative="1" as="geometry" />
        </mxCell>
        <mxCell id="ICiJjnYhTAxnkfr3iMK8-1" value="Ward" style="whiteSpace=wrap;html=1;align=center;fillColor=#73D0FF;" parent="1" vertex="1">
          <mxGeometry x="310" y="270" width="100" height="40" as="geometry" />
        </mxCell>
        <mxCell id="ICiJjnYhTAxnkfr3iMK8-11" value="" style="edgeStyle=orthogonalEdgeStyle;rounded=0;orthogonalLoop=1;jettySize=auto;html=1;startArrow=none;startFill=0;endArrow=none;endFill=0;" parent="1" source="ICiJjnYhTAxnkfr3iMK8-2" edge="1">
          <mxGeometry relative="1" as="geometry">
            <mxPoint x="310" y="290" as="targetPoint" />
          </mxGeometry>
        </mxCell>
        <mxCell id="ICiJjnYhTAxnkfr3iMK8-2" value="Ward #" style="ellipse;whiteSpace=wrap;html=1;align=center;fillColor=#fff2cc;strokeColor=#d6b656;" parent="1" vertex="1">
          <mxGeometry x="110" y="250" width="100" height="40" as="geometry" />
        </mxCell>
        <mxCell id="ICiJjnYhTAxnkfr3iMK8-30" style="rounded=0;orthogonalLoop=1;jettySize=auto;html=1;startArrow=none;startFill=0;endArrow=none;endFill=0;" parent="1" source="ICiJjnYhTAxnkfr3iMK8-4" target="ICiJjnYhTAxnkfr3iMK8-24" edge="1">
          <mxGeometry relative="1" as="geometry" />
        </mxCell>
        <mxCell id="ICiJjnYhTAxnkfr3iMK8-31" style="rounded=0;orthogonalLoop=1;jettySize=auto;html=1;startArrow=none;startFill=0;endArrow=none;endFill=0;exitX=0.75;exitY=1;exitDx=0;exitDy=0;" parent="1" source="ICiJjnYhTAxnkfr3iMK8-4" target="ICiJjnYhTAxnkfr3iMK8-25" edge="1">
          <mxGeometry relative="1" as="geometry" />
        </mxCell>
        <mxCell id="ICiJjnYhTAxnkfr3iMK8-32" style="rounded=0;orthogonalLoop=1;jettySize=auto;html=1;startArrow=none;startFill=0;endArrow=none;endFill=0;entryX=0;entryY=0.5;entryDx=0;entryDy=0;" parent="1" source="ICiJjnYhTAxnkfr3iMK8-4" target="ICiJjnYhTAxnkfr3iMK8-26" edge="1">
          <mxGeometry relative="1" as="geometry">
            <mxPoint x="320.3688005447648" y="567.8057847830044" as="targetPoint" />
          </mxGeometry>
        </mxCell>
        <mxCell id="ICiJjnYhTAxnkfr3iMK8-4" value="Rooms" style="whiteSpace=wrap;html=1;align=center;fillColor=#73D0FF;" parent="1" vertex="1">
          <mxGeometry x="180" y="520" width="100" height="40" as="geometry" />
        </mxCell>
        <mxCell id="ICiJjnYhTAxnkfr3iMK8-10" value="" style="edgeStyle=orthogonalEdgeStyle;rounded=0;orthogonalLoop=1;jettySize=auto;html=1;startArrow=none;startFill=0;endArrow=none;endFill=0;" parent="1" source="ICiJjnYhTAxnkfr3iMK8-8" target="ICiJjnYhTAxnkfr3iMK8-4" edge="1">
          <mxGeometry relative="1" as="geometry" />
        </mxCell>
        <mxCell id="ICiJjnYhTAxnkfr3iMK8-8" value="Contains" style="shape=rhombus;perimeter=rhombusPerimeter;whiteSpace=wrap;html=1;align=center;fillColor=#d5e8d4;strokeColor=#82b366;" parent="1" vertex="1">
          <mxGeometry x="160" y="420" width="120" height="60" as="geometry" />
        </mxCell>
        <mxCell id="ICiJjnYhTAxnkfr3iMK8-21" value="" style="endArrow=classic;html=1;rounded=0;exitX=0.5;exitY=0;exitDx=0;exitDy=0;entryX=0.5;entryY=1;entryDx=0;entryDy=0;endFill=1;" parent="1" source="ICiJjnYhTAxnkfr3iMK8-8" target="ICiJjnYhTAxnkfr3iMK8-1" edge="1">
          <mxGeometry relative="1" as="geometry">
            <mxPoint x="400" y="409.5" as="sourcePoint" />
            <mxPoint x="560" y="409.5" as="targetPoint" />
          </mxGeometry>
        </mxCell>
        <mxCell id="ICiJjnYhTAxnkfr3iMK8-22" value="â‰¥1" style="resizable=0;html=1;align=right;verticalAlign=bottom;fillColor=#73D0FF;" parent="ICiJjnYhTAxnkfr3iMK8-21" connectable="0" vertex="1">
          <mxGeometry x="1" relative="1" as="geometry" />
        </mxCell>
        <mxCell id="ICiJjnYhTAxnkfr3iMK8-23" value="&lt;u&gt;Room #&lt;/u&gt;" style="ellipse;whiteSpace=wrap;html=1;align=center;fillColor=#fff2cc;strokeColor=#d6b656;" parent="1" vertex="1">
          <mxGeometry x="40" y="500" width="100" height="40" as="geometry" />
        </mxCell>
        <mxCell id="ICiJjnYhTAxnkfr3iMK8-24" value="Size" style="ellipse;whiteSpace=wrap;html=1;align=center;fillColor=#fff2cc;strokeColor=#d6b656;" parent="1" vertex="1">
          <mxGeometry x="80" y="590" width="100" height="40" as="geometry" />
        </mxCell>
        <mxCell id="ICiJjnYhTAxnkfr3iMK8-25" value="Number of beds" style="ellipse;whiteSpace=wrap;html=1;align=center;fillColor=#fff2cc;strokeColor=#d6b656;" parent="1" vertex="1">
          <mxGeometry x="210" y="600" width="100" height="40" as="geometry" />
        </mxCell>
        <mxCell id="ICiJjnYhTAxnkfr3iMK8-26" value="Attached bathroom" style="ellipse;whiteSpace=wrap;html=1;align=center;fillColor=#fff2cc;strokeColor=#d6b656;" parent="1" vertex="1">
          <mxGeometry x="320" y="550" width="100" height="40" as="geometry" />
        </mxCell>
        <mxCell id="ICiJjnYhTAxnkfr3iMK8-28" value="" style="endArrow=none;html=1;rounded=0;entryX=0;entryY=0.5;entryDx=0;entryDy=0;" parent="1" source="ICiJjnYhTAxnkfr3iMK8-23" target="ICiJjnYhTAxnkfr3iMK8-4" edge="1">
          <mxGeometry relative="1" as="geometry">
            <mxPoint x="140" y="520" as="sourcePoint" />
            <mxPoint x="300" y="520" as="targetPoint" />
          </mxGeometry>
        </mxCell>
        <mxCell id="ICiJjnYhTAxnkfr3iMK8-53" style="edgeStyle=none;rounded=0;orthogonalLoop=1;jettySize=auto;html=1;entryX=0.5;entryY=1;entryDx=0;entryDy=0;startArrow=none;startFill=0;endArrow=none;endFill=0;" parent="1" source="ICiJjnYhTAxnkfr3iMK8-34" target="ICiJjnYhTAxnkfr3iMK8-36" edge="1">
          <mxGeometry relative="1" as="geometry">
            <mxPoint x="840" y="444.9999999999999" as="targetPoint" />
          </mxGeometry>
        </mxCell>
        <mxCell id="ICiJjnYhTAxnkfr3iMK8-54" style="edgeStyle=none;rounded=0;orthogonalLoop=1;jettySize=auto;html=1;startArrow=none;startFill=0;endArrow=none;endFill=0;" parent="1" source="ICiJjnYhTAxnkfr3iMK8-34" target="ICiJjnYhTAxnkfr3iMK8-38" edge="1">
          <mxGeometry relative="1" as="geometry" />
        </mxCell>
        <mxCell id="ICiJjnYhTAxnkfr3iMK8-55" style="edgeStyle=none;rounded=0;orthogonalLoop=1;jettySize=auto;html=1;startArrow=none;startFill=0;endArrow=none;endFill=0;" parent="1" source="ICiJjnYhTAxnkfr3iMK8-34" target="ICiJjnYhTAxnkfr3iMK8-37" edge="1">
          <mxGeometry relative="1" as="geometry" />
        </mxCell>
        <mxCell id="ICiJjnYhTAxnkfr3iMK8-56" style="edgeStyle=none;rounded=0;orthogonalLoop=1;jettySize=auto;html=1;startArrow=none;startFill=0;endArrow=none;endFill=0;" parent="1" source="ICiJjnYhTAxnkfr3iMK8-34" target="ICiJjnYhTAxnkfr3iMK8-39" edge="1">
          <mxGeometry relative="1" as="geometry" />
        </mxCell>
        <mxCell id="ICiJjnYhTAxnkfr3iMK8-34" value="Patient" style="whiteSpace=wrap;html=1;align=center;fillColor=#73D0FF;" parent="1" vertex="1">
          <mxGeometry x="830" y="485" width="100" height="40" as="geometry" />
        </mxCell>
        <mxCell id="ICiJjnYhTAxnkfr3iMK8-50" style="edgeStyle=none;rounded=0;orthogonalLoop=1;jettySize=auto;html=1;exitX=1;exitY=0.5;exitDx=0;exitDy=0;entryX=0;entryY=0.5;entryDx=0;entryDy=0;startArrow=none;startFill=0;endArrow=none;endFill=0;" parent="1" source="ICiJjnYhTAxnkfr3iMK8-35" target="ICiJjnYhTAxnkfr3iMK8-34" edge="1">
          <mxGeometry relative="1" as="geometry" />
        </mxCell>
        <mxCell id="ICiJjnYhTAxnkfr3iMK8-35" value="Register" style="shape=rhombus;perimeter=rhombusPerimeter;whiteSpace=wrap;html=1;align=center;fillColor=#d5e8d4;strokeColor=#82b366;" parent="1" vertex="1">
          <mxGeometry x="590" y="370" width="120" height="60" as="geometry" />
        </mxCell>
        <mxCell id="ICiJjnYhTAxnkfr3iMK8-36" value="IC#" style="ellipse;whiteSpace=wrap;html=1;align=center;fillColor=#fff2cc;strokeColor=#d6b656;" parent="1" vertex="1">
          <mxGeometry x="760" y="390" width="100" height="40" as="geometry" />
        </mxCell>
        <mxCell id="ICiJjnYhTAxnkfr3iMK8-37" value="firstname" style="ellipse;whiteSpace=wrap;html=1;align=center;fillColor=#fff2cc;strokeColor=#d6b656;" parent="1" vertex="1">
          <mxGeometry x="970" y="475" width="100" height="40" as="geometry" />
        </mxCell>
        <mxCell id="ICiJjnYhTAxnkfr3iMK8-38" value="surname" style="ellipse;whiteSpace=wrap;html=1;align=center;fillColor=#fff2cc;strokeColor=#d6b656;" parent="1" vertex="1">
          <mxGeometry x="940" y="415" width="100" height="40" as="geometry" />
        </mxCell>
        <mxCell id="ICiJjnYhTAxnkfr3iMK8-39" value="address" style="ellipse;whiteSpace=wrap;html=1;align=center;fillColor=#fff2cc;strokeColor=#d6b656;" parent="1" vertex="1">
          <mxGeometry x="950" y="545" width="100" height="40" as="geometry" />
        </mxCell>
        <mxCell id="ICiJjnYhTAxnkfr3iMK8-51" style="edgeStyle=none;rounded=0;orthogonalLoop=1;jettySize=auto;html=1;entryX=1;entryY=0.5;entryDx=0;entryDy=0;startArrow=none;startFill=0;endArrow=none;endFill=0;" parent="1" source="ICiJjnYhTAxnkfr3iMK8-40" target="ICiJjnYhTAxnkfr3iMK8-1" edge="1">
          <mxGeometry relative="1" as="geometry" />
        </mxCell>
        <mxCell id="ICiJjnYhTAxnkfr3iMK8-52" style="edgeStyle=none;rounded=0;orthogonalLoop=1;jettySize=auto;html=1;entryX=0;entryY=0.5;entryDx=0;entryDy=0;startArrow=none;startFill=0;endArrow=none;endFill=0;" parent="1" source="ICiJjnYhTAxnkfr3iMK8-40" target="ICiJjnYhTAxnkfr3iMK8-34" edge="1">
          <mxGeometry relative="1" as="geometry" />
        </mxCell>
        <mxCell id="ICiJjnYhTAxnkfr3iMK8-40" value="Discharge" style="shape=rhombus;perimeter=rhombusPerimeter;whiteSpace=wrap;html=1;align=center;fillColor=#d5e8d4;strokeColor=#82b366;" parent="1" vertex="1">
          <mxGeometry x="580" y="455" width="120" height="60" as="geometry" />
        </mxCell>
        <mxCell id="ICiJjnYhTAxnkfr3iMK8-41" value="discharge date" style="ellipse;whiteSpace=wrap;html=1;align=center;fillColor=#fff2cc;strokeColor=#d6b656;" parent="1" vertex="1">
          <mxGeometry x="590" y="585" width="100" height="40" as="geometry" />
        </mxCell>
        <mxCell id="ICiJjnYhTAxnkfr3iMK8-42" value="" style="endArrow=none;html=1;rounded=0;entryX=0.5;entryY=1;entryDx=0;entryDy=0;" parent="1" source="ICiJjnYhTAxnkfr3iMK8-41" target="ICiJjnYhTAxnkfr3iMK8-40" edge="1">
          <mxGeometry relative="1" as="geometry">
            <mxPoint x="750" y="640" as="sourcePoint" />
            <mxPoint x="880" y="640" as="targetPoint" />
          </mxGeometry>
        </mxCell>
        <mxCell id="ICiJjnYhTAxnkfr3iMK8-47" style="edgeStyle=none;rounded=0;orthogonalLoop=1;jettySize=auto;html=1;entryX=0.5;entryY=0;entryDx=0;entryDy=0;startArrow=none;startFill=0;endArrow=none;endFill=0;" parent="1" source="ICiJjnYhTAxnkfr3iMK8-45" target="ICiJjnYhTAxnkfr3iMK8-35" edge="1">
          <mxGeometry relative="1" as="geometry" />
        </mxCell>
        <mxCell id="ICiJjnYhTAxnkfr3iMK8-45" value="register date" style="ellipse;whiteSpace=wrap;html=1;align=center;fillColor=#fff2cc;strokeColor=#d6b656;" parent="1" vertex="1">
          <mxGeometry x="600" y="300" width="100" height="40" as="geometry" />
        </mxCell>
        <mxCell id="ICiJjnYhTAxnkfr3iMK8-76" style="edgeStyle=none;rounded=0;orthogonalLoop=1;jettySize=auto;html=1;entryX=0;entryY=0.5;entryDx=0;entryDy=0;strokeColor=default;startArrow=none;startFill=0;endArrow=none;endFill=0;" parent="1" source="ICiJjnYhTAxnkfr3iMK8-59" target="ICiJjnYhTAxnkfr3iMK8-75" edge="1">
          <mxGeometry relative="1" as="geometry" />
        </mxCell>
        <mxCell id="ICiJjnYhTAxnkfr3iMK8-81" style="edgeStyle=none;rounded=0;orthogonalLoop=1;jettySize=auto;html=1;entryX=0.275;entryY=1.075;entryDx=0;entryDy=0;entryPerimeter=0;strokeColor=default;startArrow=none;startFill=0;endArrow=none;endFill=0;" parent="1" source="ICiJjnYhTAxnkfr3iMK8-59" target="ICiJjnYhTAxnkfr3iMK8-61" edge="1">
          <mxGeometry relative="1" as="geometry" />
        </mxCell>
        <mxCell id="ICiJjnYhTAxnkfr3iMK8-59" value="Paediatrics" style="whiteSpace=wrap;html=1;align=center;fillColor=#73D0FF;" parent="1" vertex="1">
          <mxGeometry x="290" y="100" width="100" height="40" as="geometry" />
        </mxCell>
        <mxCell id="ICiJjnYhTAxnkfr3iMK8-79" style="edgeStyle=none;rounded=0;orthogonalLoop=1;jettySize=auto;html=1;entryX=0;entryY=0.5;entryDx=0;entryDy=0;strokeColor=default;startArrow=none;startFill=0;endArrow=none;endFill=0;" parent="1" source="ICiJjnYhTAxnkfr3iMK8-60" target="ICiJjnYhTAxnkfr3iMK8-72" edge="1">
          <mxGeometry relative="1" as="geometry" />
        </mxCell>
        <mxCell id="ICiJjnYhTAxnkfr3iMK8-85" style="edgeStyle=none;rounded=0;orthogonalLoop=1;jettySize=auto;html=1;strokeColor=default;startArrow=none;startFill=0;endArrow=none;endFill=0;" parent="1" source="ICiJjnYhTAxnkfr3iMK8-60" target="ICiJjnYhTAxnkfr3iMK8-84" edge="1">
          <mxGeometry relative="1" as="geometry" />
        </mxCell>
        <mxCell id="ICiJjnYhTAxnkfr3iMK8-60" value="Surgery" style="whiteSpace=wrap;html=1;align=center;fillColor=#73D0FF;" parent="1" vertex="1">
          <mxGeometry x="600" y="110" width="100" height="40" as="geometry" />
        </mxCell>
        <mxCell id="ICiJjnYhTAxnkfr3iMK8-61" value="# of baby nuseries" style="ellipse;whiteSpace=wrap;html=1;align=center;fillColor=#fff2cc;strokeColor=#d6b656;" parent="1" vertex="1">
          <mxGeometry x="390" y="30" width="100" height="40" as="geometry" />
        </mxCell>
        <mxCell id="ICiJjnYhTAxnkfr3iMK8-80" style="edgeStyle=none;rounded=0;orthogonalLoop=1;jettySize=auto;html=1;strokeColor=default;startArrow=none;startFill=0;endArrow=none;endFill=0;" parent="1" source="ICiJjnYhTAxnkfr3iMK8-62" target="ICiJjnYhTAxnkfr3iMK8-60" edge="1">
          <mxGeometry relative="1" as="geometry" />
        </mxCell>
        <mxCell id="ICiJjnYhTAxnkfr3iMK8-62" value="# of ICUs" style="ellipse;whiteSpace=wrap;html=1;align=center;fillColor=#fff2cc;strokeColor=#d6b656;" parent="1" vertex="1">
          <mxGeometry x="590" y="170" width="100" height="40" as="geometry" />
        </mxCell>
        <mxCell id="ICiJjnYhTAxnkfr3iMK8-78" style="edgeStyle=none;rounded=0;orthogonalLoop=1;jettySize=auto;html=1;strokeColor=default;startArrow=none;startFill=0;endArrow=none;endFill=0;" parent="1" source="ICiJjnYhTAxnkfr3iMK8-72" target="ICiJjnYhTAxnkfr3iMK8-1" edge="1">
          <mxGeometry relative="1" as="geometry" />
        </mxCell>
        <mxCell id="ICiJjnYhTAxnkfr3iMK8-72" value="isa" style="triangle;whiteSpace=wrap;html=1;fillColor=#d5e8d4;strokeColor=#82b366;rotation=90;" parent="1" vertex="1">
          <mxGeometry x="450" y="170" width="30" height="60" as="geometry" />
        </mxCell>
        <mxCell id="ICiJjnYhTAxnkfr3iMK8-77" style="edgeStyle=none;rounded=0;orthogonalLoop=1;jettySize=auto;html=1;strokeColor=default;startArrow=none;startFill=0;endArrow=none;endFill=0;" parent="1" source="ICiJjnYhTAxnkfr3iMK8-75" target="ICiJjnYhTAxnkfr3iMK8-1" edge="1">
          <mxGeometry relative="1" as="geometry" />
        </mxCell>
        <mxCell id="ICiJjnYhTAxnkfr3iMK8-75" value="isa" style="triangle;whiteSpace=wrap;html=1;fillColor=#d5e8d4;strokeColor=#82b366;rotation=90;" parent="1" vertex="1">
          <mxGeometry x="330" y="170" width="30" height="60" as="geometry" />
        </mxCell>
        <mxCell id="ICiJjnYhTAxnkfr3iMK8-83" style="edgeStyle=none;rounded=0;orthogonalLoop=1;jettySize=auto;html=1;entryX=0.25;entryY=0;entryDx=0;entryDy=0;strokeColor=default;startArrow=none;startFill=0;endArrow=none;endFill=0;" parent="1" source="ICiJjnYhTAxnkfr3iMK8-82" target="ICiJjnYhTAxnkfr3iMK8-1" edge="1">
          <mxGeometry relative="1" as="geometry" />
        </mxCell>
        <mxCell id="ICiJjnYhTAxnkfr3iMK8-82" value="Cardiology" style="whiteSpace=wrap;html=1;align=center;fillColor=#73D0FF;" parent="1" vertex="1">
          <mxGeometry x="150" y="120" width="100" height="40" as="geometry" />
        </mxCell>
        <mxCell id="ICiJjnYhTAxnkfr3iMK8-86" style="edgeStyle=none;rounded=0;orthogonalLoop=1;jettySize=auto;html=1;strokeColor=default;startArrow=none;startFill=0;endArrow=none;endFill=0;" parent="1" source="ICiJjnYhTAxnkfr3iMK8-84" target="ICiJjnYhTAxnkfr3iMK8-34" edge="1">
          <mxGeometry relative="1" as="geometry">
            <mxPoint x="880" y="259.9999999999999" as="targetPoint" />
          </mxGeometry>
        </mxCell>
        <mxCell id="ICiJjnYhTAxnkfr3iMK8-84" value="Surgical Operation" style="shape=rhombus;perimeter=rhombusPerimeter;whiteSpace=wrap;html=1;align=center;fillColor=#d5e8d4;strokeColor=#82b366;" parent="1" vertex="1">
          <mxGeometry x="820" y="140" width="120" height="60" as="geometry" />
        </mxCell>
        <mxCell id="s0g9AZDTexIM-AFnt-F2-9" style="edgeStyle=none;rounded=0;orthogonalLoop=1;jettySize=auto;html=1;entryX=0.5;entryY=1;entryDx=0;entryDy=0;endArrow=none;endFill=0;startArrow=ERmany;startFill=0;" edge="1" parent="1" source="ICiJjnYhTAxnkfr3iMK8-88" target="s0g9AZDTexIM-AFnt-F2-8">
          <mxGeometry relative="1" as="geometry" />
        </mxCell>
        <mxCell id="ICiJjnYhTAxnkfr3iMK8-88" value="Nurses" style="whiteSpace=wrap;html=1;align=center;fillColor=#73D0FF;" parent="1" vertex="1">
          <mxGeometry x="590" y="730" width="100" height="40" as="geometry" />
        </mxCell>
        <mxCell id="ICiJjnYhTAxnkfr3iMK8-93" style="edgeStyle=none;rounded=0;orthogonalLoop=1;jettySize=auto;html=1;entryX=0.25;entryY=1;entryDx=0;entryDy=0;strokeColor=default;startArrow=none;startFill=0;endArrow=none;endFill=0;" parent="1" source="ICiJjnYhTAxnkfr3iMK8-89" target="ICiJjnYhTAxnkfr3iMK8-88" edge="1">
          <mxGeometry relative="1" as="geometry" />
        </mxCell>
        <mxCell id="ICiJjnYhTAxnkfr3iMK8-89" value="staff#" style="ellipse;whiteSpace=wrap;html=1;align=center;fillColor=#fff2cc;strokeColor=#d6b656;" parent="1" vertex="1">
          <mxGeometry x="500" y="830" width="100" height="40" as="geometry" />
        </mxCell>
        <mxCell id="ICiJjnYhTAxnkfr3iMK8-94" style="edgeStyle=none;rounded=0;orthogonalLoop=1;jettySize=auto;html=1;strokeColor=default;startArrow=none;startFill=0;endArrow=none;endFill=0;" parent="1" source="ICiJjnYhTAxnkfr3iMK8-90" target="ICiJjnYhTAxnkfr3iMK8-88" edge="1">
          <mxGeometry relative="1" as="geometry" />
        </mxCell>
        <mxCell id="ICiJjnYhTAxnkfr3iMK8-90" value="firstname" style="ellipse;whiteSpace=wrap;html=1;align=center;fillColor=#fff2cc;strokeColor=#d6b656;" parent="1" vertex="1">
          <mxGeometry x="610" y="840" width="100" height="40" as="geometry" />
        </mxCell>
        <mxCell id="ICiJjnYhTAxnkfr3iMK8-95" style="edgeStyle=none;rounded=0;orthogonalLoop=1;jettySize=auto;html=1;strokeColor=default;startArrow=none;startFill=0;endArrow=none;endFill=0;" parent="1" source="ICiJjnYhTAxnkfr3iMK8-91" target="ICiJjnYhTAxnkfr3iMK8-88" edge="1">
          <mxGeometry relative="1" as="geometry" />
        </mxCell>
        <mxCell id="ICiJjnYhTAxnkfr3iMK8-91" value="surname" style="ellipse;whiteSpace=wrap;html=1;align=center;fillColor=#fff2cc;strokeColor=#d6b656;" parent="1" vertex="1">
          <mxGeometry x="720" y="840" width="100" height="40" as="geometry" />
        </mxCell>
        <mxCell id="ICiJjnYhTAxnkfr3iMK8-96" style="edgeStyle=none;rounded=0;orthogonalLoop=1;jettySize=auto;html=1;entryX=0.75;entryY=1;entryDx=0;entryDy=0;strokeColor=default;startArrow=none;startFill=0;endArrow=none;endFill=0;" parent="1" source="ICiJjnYhTAxnkfr3iMK8-92" target="ICiJjnYhTAxnkfr3iMK8-88" edge="1">
          <mxGeometry relative="1" as="geometry" />
        </mxCell>
        <mxCell id="ICiJjnYhTAxnkfr3iMK8-92" value="DateofJoining" style="ellipse;whiteSpace=wrap;html=1;align=center;fillColor=#fff2cc;strokeColor=#d6b656;" parent="1" vertex="1">
          <mxGeometry x="810" y="800" width="100" height="40" as="geometry" />
        </mxCell>
        <mxCell id="s0g9AZDTexIM-AFnt-F2-3" style="edgeStyle=orthogonalEdgeStyle;rounded=0;orthogonalLoop=1;jettySize=auto;html=1;endArrow=none;endFill=0;" edge="1" parent="1" source="s0g9AZDTexIM-AFnt-F2-1" target="ICiJjnYhTAxnkfr3iMK8-84">
          <mxGeometry relative="1" as="geometry" />
        </mxCell>
        <mxCell id="s0g9AZDTexIM-AFnt-F2-1" value="Operation Type" style="ellipse;whiteSpace=wrap;html=1;align=center;fillColor=#fff2cc;strokeColor=#d6b656;" vertex="1" parent="1">
          <mxGeometry x="850" y="60" width="100" height="40" as="geometry" />
        </mxCell>
        <mxCell id="s0g9AZDTexIM-AFnt-F2-4" style="edgeStyle=orthogonalEdgeStyle;rounded=0;orthogonalLoop=1;jettySize=auto;html=1;entryX=1;entryY=0.5;entryDx=0;entryDy=0;endArrow=none;endFill=0;" edge="1" parent="1" source="s0g9AZDTexIM-AFnt-F2-2" target="ICiJjnYhTAxnkfr3iMK8-84">
          <mxGeometry relative="1" as="geometry" />
        </mxCell>
        <mxCell id="s0g9AZDTexIM-AFnt-F2-2" value="Normal duration&amp;nbsp;" style="ellipse;whiteSpace=wrap;html=1;align=center;fillColor=#fff2cc;strokeColor=#d6b656;" vertex="1" parent="1">
          <mxGeometry x="960" y="110" width="100" height="40" as="geometry" />
        </mxCell>
        <mxCell id="s0g9AZDTexIM-AFnt-F2-10" style="edgeStyle=none;rounded=0;orthogonalLoop=1;jettySize=auto;html=1;entryX=0.68;entryY=0.975;entryDx=0;entryDy=0;entryPerimeter=0;endArrow=ERoneToMany;endFill=0;" edge="1" parent="1" source="s0g9AZDTexIM-AFnt-F2-8" target="ICiJjnYhTAxnkfr3iMK8-1">
          <mxGeometry relative="1" as="geometry" />
        </mxCell>
        <mxCell id="s0g9AZDTexIM-AFnt-F2-8" value="Assigned to" style="shape=rhombus;perimeter=rhombusPerimeter;whiteSpace=wrap;html=1;align=center;fillColor=#d5e8d4;strokeColor=#82b366;" vertex="1" parent="1">
          <mxGeometry x="410" y="475" width="120" height="60" as="geometry" />
        </mxCell>
        <mxCell id="s0g9AZDTexIM-AFnt-F2-15" style="edgeStyle=none;rounded=0;orthogonalLoop=1;jettySize=auto;html=1;entryX=0;entryY=0.5;entryDx=0;entryDy=0;startArrow=none;startFill=0;endArrow=none;endFill=0;" edge="1" parent="1" source="s0g9AZDTexIM-AFnt-F2-11" target="ICiJjnYhTAxnkfr3iMK8-1">
          <mxGeometry relative="1" as="geometry" />
        </mxCell>
        <mxCell id="s0g9AZDTexIM-AFnt-F2-11" value="Block#" style="ellipse;whiteSpace=wrap;html=1;align=center;fillColor=#fff2cc;strokeColor=#d6b656;" vertex="1" parent="1">
          <mxGeometry x="90" y="300" width="100" height="40" as="geometry" />
        </mxCell>
        <mxCell id="s0g9AZDTexIM-AFnt-F2-16" style="edgeStyle=none;rounded=0;orthogonalLoop=1;jettySize=auto;html=1;startArrow=none;startFill=0;endArrow=none;endFill=0;" edge="1" parent="1" source="s0g9AZDTexIM-AFnt-F2-12" target="ICiJjnYhTAxnkfr3iMK8-1">
          <mxGeometry relative="1" as="geometry" />
        </mxCell>
        <mxCell id="s0g9AZDTexIM-AFnt-F2-12" value="Level #" style="ellipse;whiteSpace=wrap;html=1;align=center;fillColor=#fff2cc;strokeColor=#d6b656;" vertex="1" parent="1">
          <mxGeometry x="110" y="350" width="100" height="40" as="geometry" />
        </mxCell>
      </root>
    </mxGraphModel>
  </diagram>
</mxfile>
